Coordinates
version=1
nRows=17
nColumns=36
inDegrees=yes

Units are S.I. units (second, meters, Newtons, ...)
If the header above contains a line with 'inDegrees', this indicates whether rotational values are in degrees (yes) or radians (no).

endheader
time	pelvis_tilt	pelvis_list	pelvis_rotation	pelvis_tx	pelvis_ty	pelvis_tz	hip_flexion_r	hip_adduction_r	hip_rotation_r	knee_angle_r	knee_angle_r_beta	ankle_angle_r	subtalar_angle_r	mtp_angle_r	hip_flexion_l	hip_adduction_l	hip_rotation_l	knee_angle_l	knee_angle_l_beta	ankle_angle_l	subtalar_angle_l	mtp_angle_l	lumbar_extension	lumbar_bending	lumbar_rotation	arm_flex_r	arm_add_r	arm_rot_r	elbow_flex_r	pro_sup_r	arm_flex_l	arm_add_l	arm_rot_l	elbow_flex_l	pro_sup_l
      1.82000000	     -4.11460536	      4.17757499	     86.73920431	     -0.32203989	      0.96455424	     -1.06397091	     21.25451046	     -9.55581101	     -5.75232203	     56.67511537	      0.98916737	     -1.27365706	    -30.05608851	     -7.49999986	     -2.81526055	      7.88301176	    -14.33307693	     11.75491290	      0.20516193	      9.04836310	      6.29802972	     -7.49999986	    -15.56676567	     -5.39340671	     -1.43550931	      3.65037574	     -5.71669894	    -33.59386349	     41.43526088	     99.36853036	      6.40395955	     -6.79892579	    -34.56432614	     35.76677497	     83.47542031
      1.83000000	     -3.98709953	      4.17385224	     87.36046411	     -0.32338934	      0.96433108	     -1.07462171	     21.90054896	     -9.61609208	     -7.05428100	     54.29952124	      0.94770543	     -0.60650569	    -29.73562318	     -7.49999986	     -3.84507562	      7.79555028	    -14.36635586	     11.18309229	      0.19518178	      9.25554408	      7.42363217	     -7.49999986	    -15.80041788	     -5.11295446	     -2.04295088	      3.51689053	     -5.53690436	    -34.65941320	     41.13963231	    102.12819302	      7.08651605	     -7.36757160	    -33.00369550	     36.30314062	     85.44666773
      1.84000000	     -3.92436836	      4.38459108	     88.05038516	     -0.32496055	      0.96415847	     -1.08556239	     22.14873176	     -9.74864212	     -8.36719563	     51.65697456	      0.90158429	     -0.13071452	    -29.40153467	     -7.49999986	     -5.05936492	      7.82120198	    -13.82033897	     10.70982535	      0.18692171	      9.65858656	      7.66249556	     -7.49999986	    -16.17676844	     -4.87182883	     -2.77643415	      3.19633833	     -5.59376535	    -34.56800260	     40.87786250	     99.70255071	      7.95658252	     -7.65612386	    -32.08721594	     36.62174403	     83.83502366
      1.85000000	     -3.78079157	      4.57508180	     88.76357126	     -0.32625684	      0.96366623	     -1.09646055	     22.32623213	     -9.84012714	     -9.92340760	     48.80903872	      0.85187843	      0.37319177	    -28.58709843	     -7.49999987	     -6.19734843	      7.60539261	    -13.88858711	     10.44402972	      0.18228271	     10.21155284	      9.36140096	     -7.49999987	    -16.64178915	     -4.59164209	     -3.26820084	      2.67477892	     -5.46650937	    -35.27821011	     41.15647690	     99.78064625	      8.85762440	     -8.08890683	    -30.64408726	     37.22379978	     83.80636578
      1.86000000	     -3.65184012	      4.83225880	     89.53239377	     -0.32768846	      0.96311954	     -1.10764368	     22.26632652	     -9.89242240	    -11.50243846	     45.72180996	      0.79799612	      0.97168273	    -27.85781270	     -7.49999987	     -7.54443617	      7.44475203	    -13.68625568	      9.88455277	      0.17251799	     10.69361573	     10.07922811	     -7.49999987	    -17.08219425	     -4.26906528	     -3.94620203	      2.28054175	     -5.44797116	    -35.54542082	     41.05595991	     98.43333711	      9.73768892	     -8.37112258	    -29.63477661	     37.63818609	     82.80569474
      1.87000000	     -3.64258714	      4.78464426	     90.26175592	     -0.32895028	      0.96184134	     -1.11850215	     22.66210391	    -10.00781821	    -12.82584762	     42.76550428	      0.74639886	      0.99227015	    -26.80804155	     -7.49999987	     -8.29257236	      7.34631595	    -13.30040258	      9.86272383	      0.17213700	     11.47801724	     10.80867985	     -7.49999987	    -17.19421535	     -4.09615173	     -4.64430223	      1.91340012	     -5.32046052	    -36.03714943	     40.99947154	     98.91443871	     10.50595402	     -8.68472673	    -28.97916986	     38.15856032	     83.24985387
      1.88000000	     -3.54809021	      5.31776026	     91.02871683	     -0.32992961	      0.96131673	     -1.12958987	     22.24938993	    -10.01171708	    -14.29314427	     39.56244827	      0.69049498	      0.99904281	    -25.08559061	     -7.49999987	     -9.75426839	      7.07351364	    -13.27034799	      9.69236208	      0.16916363	     12.00333860	     11.99983930	     -7.49999987	    -17.97396019	     -3.85269761	     -5.31750681	      1.73971698	     -5.06622184	    -37.01100097	     40.82120283	     99.61158547	     11.41851589	     -9.22759065	    -27.69439515	     38.63404260	     84.02343922
      1.89000000	     -3.58540886	      5.46984286	     91.72444455	     -0.33093563	      0.95999454	     -1.14069770	     22.26447046	    -10.12150091	    -15.78133077	     36.38641282	      0.63506271	      0.96645134	    -23.18651896	     -7.49999987	    -10.77635784	      6.95129953	    -13.11362350	      9.58264949	      0.16724878	     12.63620343	     12.87756028	     -7.49999987	    -18.30159526	     -3.74720508	     -5.93625491	      1.41607832	     -4.88091050	    -37.72001413	     40.73029240	    100.03373677	     12.15716919	     -9.66430460	    -26.64959401	     39.07259127	     84.60983306
      1.90000000	     -3.65723360	      5.67391239	     92.47323785	     -0.33183923	      0.95854811	     -1.15185547	     22.19097874	    -10.21746023	    -17.22953877	     33.20756147	      0.57958128	      1.06775705	    -20.65445465	     -7.49999987	    -11.86642584	      6.81323895	    -12.89022309	      9.45382541	      0.16500038	     13.18062422	     13.83386622	     -7.49999987	    -18.69732713	     -3.67721956	     -6.57505576	      1.09218753	     -4.60509615	    -38.57637126	     40.68773777	    100.43594920	     12.90580966	    -10.14724654	    -25.52819601	     39.66796091	     85.26034314
      1.91000000	     -3.81086465	      5.74603254	     93.03858107	     -0.33237492	      0.95677159	     -1.16285644	     22.33918744	    -10.33905384	    -18.54742657	     30.14912507	      0.52620150	      0.90584709	    -17.45340740	     -7.49999987	    -12.77906750	      6.78693990	    -12.75534470	      9.37229377	      0.16357738	     13.71206532	     14.53181307	     -7.49999987	    -18.93640190	     -3.75403263	     -7.11843212	      0.84180459	     -4.35988496	    -39.30114200	     40.50337262	    100.94821320	     13.70896910	    -10.65209759	    -24.48912021	     39.98009529	     85.97785469
      1.92000000	     -3.75371517	      5.70374184	     93.45584951	     -0.33278597	      0.95520432	     -1.17326513	     22.95771825	    -10.23303018	    -19.66432819	     27.66098904	      0.48277533	     -1.73215502	    -15.53299566	     -7.49999987	    -13.40936892	      6.54503825	    -12.81728794	      9.47768716	      0.16541685	     14.12068616	     14.96641026	     -7.49999987	    -19.18544092	     -3.59866391	     -7.46929852	      0.77891203	     -4.16264058	    -40.06073176	     40.23676685	    100.78740196	     14.60693103	    -10.94987212	    -23.71840914	     40.22810649	     86.23576756
      1.93000000	     -3.83661155	      5.55450022	     93.87751337	     -0.33270412	      0.95294539	     -1.18420492	     23.40580417	    -10.12450275	    -20.67019473	     24.78474703	      0.43257544	     -1.25536713	    -11.31208454	     -7.49999987	    -13.98692338	      6.40700498	    -12.92952997	      9.56987017	      0.16702574	     14.85132725	     15.90350574	     -7.49999987	    -19.20471038	     -3.65996365	     -7.86969082	      0.62113875	     -3.82231469	    -41.08571124	     40.02856528	    102.16514719	     15.22100802	    -11.50881229	    -22.56006575	     40.78742919	     86.85014878
      1.94000000	     -3.96414879	      5.45814291	     94.31837183	     -0.33263088	      0.95085018	     -1.19513036	     23.72571138	    -10.04574774	    -21.59696700	     22.05457505	      0.38492495	     -0.28794112	     -6.18149650	     -7.49999987	    -14.55673225	      6.30087527	    -12.86338838	      9.76873579	      0.17049660	     15.36517460	     16.48322195	     -7.49999987	    -19.32129689	     -3.78404422	     -8.20289235	      0.34820298	     -3.60356677	    -41.51967375	     39.82349681	    100.87697646	     15.91903380	    -11.93684129	    -21.43634001	     41.27832283	     85.28068850
      1.95000000	     -3.99795244	      5.25844594	     94.73513903	     -0.33221786	      0.94853722	     -1.20627073	     24.10128101	     -9.78750821	    -22.36261443	     19.37936575	      0.33823374	      0.31046842	     -1.56857099	     -7.49999987	    -14.93178079	      6.03929775	    -12.97341103	     10.17199730	      0.17753484	     15.82269247	     17.01855277	     -7.49999987	    -19.24746385	     -3.82761731	     -8.56825597	      0.30419612	     -3.23714218	    -42.78311347	     39.40768501	    102.97276922	     16.61779025	    -12.30766801	    -20.97707835	     41.47819260	     87.01985685
      1.96000000	     -4.01621444	      5.07348571	     95.07641658	     -0.33162462	      0.94617686	     -1.21726362	     24.48101537	     -9.51374380	    -22.99932341	     16.93932472	      0.29564699	      0.60825704	      2.83490474	     -7.49999987	    -15.24350675	      5.74523995	    -13.09190910	     10.71513222	      0.18701434	     16.25754843	     17.51733094	     -7.49999987	    -19.23655646	     -3.87121660	     -8.87964771	      0.21827628	     -2.98401345	    -43.40624663	     39.05992040	    102.93302326	     17.29732092	    -12.70378904	    -20.32708003	     41.80844231	     86.92042115
      1.97000000	     -3.99738217	      4.76155281	     95.32721631	     -0.33094815	      0.94367251	     -1.22839333	     24.92403952	     -9.17660923	    -23.48978689	     14.62181010	      0.25519873	      0.57665239	      6.90029263	     -7.49999987	    -15.36118241	      5.44255604	    -13.31475116	     11.37117683	      0.19846448	     16.80802113	     17.88745471	     -7.49999987	    -19.06165888	     -3.89437860	     -9.00656811	      0.07841860	     -2.73880267	    -44.20058124	     38.72168101	    103.01610881	     17.91236772	    -12.98937737	    -19.58967630	     41.98182641	     86.62275280
      1.98000000	     -3.96337153	      4.37380766	     95.54717123	     -0.33033386	      0.94121339	     -1.23969484	     25.39024044	     -8.84064639	    -23.84808231	     12.56926824	      0.21937512	      0.25400802	     10.58500080	     -7.49999987	    -15.35826728	      5.13766978	    -13.50260856	     12.10152060	      0.21121138	     17.13914264	     18.19246029	     -7.49999987	    -18.78445795	     -3.88705911	     -9.11379552	     -0.00310324	     -2.57832243	    -44.94627133	     38.25711497	    103.52588150	     18.35417620	    -13.17991329	    -19.09043796	     42.40005544	     86.75971508
